{"title":"My.Future.BoyFriend.2011.HDTVrip.x264.Feel-Free","uid":6817011,"size":1264222699,"categoryP":"video","categoryS":"movies","magnet":"?xt=urn:btih:b73a5487af2e4c79f30b2c4906e6da4d0f7eb67e&amp;dn=My.Future.BoyFriend.2011.HDTVrip.x264.Feel-Free&amp;tr=udp%3A%2F%2Ftracker.openbittorrent.com%3A80&amp;tr=udp%3A%2F%2Fopen.demonii.com%3A1337&amp;tr=udp%3A%2F%2Ftracker.coppersurfer.tk%3A6969&amp;tr=udp%3A%2F%2Fexodus.desync.com%3A6969","seeders":2,"leechers":1,"uploader":".BONE.","files":8,"time":1321251140,"description":"Genre:Comedy | Romance | Sci-Fi\nLanguage:English &lt;a href=&quot;\nhttp://www.imdb.com/title/tt1747924/&quot; rel=&quot;nofollow&quot; target=&quot;_NEW&quot;&gt;\nhttp://www.imdb.com/title/tt1747924/&lt;/a&gt;\nSource:HDTV Thanks!\n\nFormat : MPEG-4\nFormat profile : Base Media\nCodec ID : isom\nFile size : 1.17 GiB\nDuration : 1h 15mn\nOverall bit rate : 2 239 Kbps\n\nVideo\nID : 1\nFormat : AVC\nFormat/Info : Advanced Video Codec\nFormat profile : &lt;a class=&quot;__cf_email__&quot; href=&quot;/cdn-cgi/l/email-protection&quot; data-cfemail=&quot;3e765759567e720b100f&quot;&gt;[email&amp;#160;protected]&lt;/a&gt;&lt;script cf-hash='f9e31' type=&quot;text/javascript&quot;&gt;\n/* &lt;![CDATA[ */!function(){try{var t=&quot;currentScript&quot;in document?document.currentScript:function(){for(var t=document.getElementsByTagName(&quot;script&quot;),e=t.length;e--;)if(t[e].getAttribute(&quot;cf-hash&quot;))return t[e]}();if(t&amp;&amp;t.previousSibling){var e,r,n,i,c=t.previousSibling,a=c.getAttribute(&quot;data-cfemail&quot;);if(a){for(e=&quot;&quot;,r=parseInt(a.substr(0,2),16),n=2;a.length-n;n+=2)i=parseInt(a.substr(n,2),16)^r,e+=String.fromCharCode(i);e=document.createTextNode(e),c.parentNode.replaceChild(e,c)}}}catch(u){}}();/* ]]&gt; */&lt;/script&gt;\nFormat settings, CABAC : Yes\nFormat settings, ReFrames : 3 frames\nCodec ID : avc1\nCodec ID/Info : Advanced Video Coding\nDuration : 1h 15mn\nBit rate mode : Variable\nBit rate : 2 000 Kbps\nMaximum bit rate : 10.9 Mbps\nWidth : 640 pixels\nHeight : 360 pixels\nDisplay aspect ratio : 16:9\nFrame rate mode : Constant\nFrame rate : 23.976 fps\nColor space : YUV\nChroma subsampling : 4:2:0\nBit depth : 8 bits\nScan type : Progressive\nBits/(Pixel*Frame) : 0.362\nStream size : 1.05 GiB (90%)\nWriting library : x264\n\nAudio\nID : 2\nFormat : AAC\nFormat/Info : Advanced Audio Codec\nFormat version : Version 4\nFormat profile : LC\nFormat settings, SBR : No\nCodec ID : 40\nDuration : 1h 15mn\nBit rate mode : Variable\nBit rate : 224 Kbps\nMaximum bit rate : 314 Kbps\nChannel(s) : 2 channels\nChannel positions : Front: L R\nSampling rate : 48.0 KHz\nStream size : 120 MiB (10%)\n\n\nPlot:\nAn archaeologist (Barry Watson) from 1000 years in the future uncovers a romance novel written in our time..\n &lt;a href=&quot;\nhttp://img163.imageshack.us/img163/9307/vlcsnap00001ln.png&quot; rel=&quot;nofollow&quot; target=&quot;_NEW&quot;&gt;\nhttp://img163.imageshack.us/img163/9307/vlcsnap00001ln.png&lt;/a&gt;\n &lt;a href=&quot;\nhttp://img851.imageshack.us/img851/9232/vlcsnap00002mp.png&quot; rel=&quot;nofollow&quot; target=&quot;_NEW&quot;&gt;\nhttp://img851.imageshack.us/img851/9232/vlcsnap00002mp.png&lt;/a&gt;\n &lt;a href=&quot;\nhttp://img510.imageshack.us/img510/6640/vlcsnap00003r.png&quot; rel=&quot;nofollow&quot; target=&quot;_NEW&quot;&gt;\nhttp://img510.imageshack.us/img510/6640/vlcsnap00003r.png&lt;/a&gt;\n &lt;a href=&quot;\nhttp://img10.imageshack.us/img10/435/vlcsnap00004qp.png&quot; rel=&quot;nofollow&quot; target=&quot;_NEW&quot;&gt;\nhttp://img10.imageshack.us/img10/435/vlcsnap00004qp.png&lt;/a&gt;\n\n","torrent":{"xt":"urn:btih:b73a5487af2e4c79f30b2c4906e6da4d0f7eb67e","amp;dn":"My.Future.BoyFriend.2011.HDTVrip.x264.Feel-Free","amp;tr":["udp%3A%2F%2Ftracker.openbittorrent.com%3A80","udp%3A%2F%2Fopen.demonii.com%3A1337","udp%3A%2F%2Ftracker.coppersurfer.tk%3A6969","udp%3A%2F%2Fexodus.desync.com%3A6969"],"infoHash":"b73a5487af2e4c79f30b2c4906e6da4d0f7eb67e","infoHashBuffer":{"type":"Buffer","data":[183,58,84,135,175,46,76,121,243,11,44,73,6,230,218,77,15,126,182,126]},"announce":[],"urlList":[]}}